<svg width="24" height="24" viewBox="0 0 24 24" fill="none" xmlns="http://www.w3.org/2000/svg">
<g id="Group 293">
<g id="theaters">
<mask id="mask0_590_4363" style="mask-type:alpha" maskUnits="userSpaceOnUse" x="0" y="0" width="24" height="24">
<rect id="Bounding box" width="24" height="24" fill="#D9D9D9"/>
</mask>
<g mask="url(#mask0_590_4363)">
<path id="theaters_2" d="M4 21V3H6V5H8V3H16V5H18V3H20V21H18V19H16V21H8V19H6V21H4ZM6 17H8V15H6V17ZM6 13H8V11H6V13ZM6 9H8V7H6V9ZM16 17H18V15H16V17ZM16 13H18V11H16V13ZM16 9H18V7H16V9ZM10 19H14V5H10V19Z" fill="#DC393C"/>
</g>
</g>
</g>
</svg>
