<svg width="105" height="68" viewBox="0 0 105 68" fill="none" xmlns="http://www.w3.org/2000/svg">
<path d="M99.1783 11.9267C99.1783 13.5117 100.446 14.7797 102.031 14.7797C103.616 14.7797 104.884 13.5117 104.884 11.9267C104.884 10.4607 103.775 9.23233 102.348 9.11346C101.08 3.88313 96.365 0 90.7384 0C87.2515 0 84.1212 1.46608 81.9419 3.8435C78.0192 8.04362 78.2173 12.6004 78.2965 14.9382C72.2737 11.8079 65.2999 9.62857 57.5733 9.62857C40.02 9.62857 26.6272 20.4459 18.8609 28.8461C11.4909 20.8817 0 12.006 0 12.006C0 12.006 10.3418 25.3196 10.3418 38.5143C10.3418 51.709 0 65.0226 0 65.0226C0 65.0226 11.7286 55.9487 19.0986 47.9051C27.1819 56.345 40.971 67.4 57.5733 67.4C88.044 67.4 103.854 38.5143 103.854 38.5143C103.854 38.5143 103.061 37.2463 101.516 35.2255C101.516 35.2255 95.6517 42.9125 88.4798 45.0522C88.4798 45.0522 92.2045 41.7238 94.7008 38.6332C97.2367 35.5425 99.1783 32.2537 99.1783 32.2537C95.5329 27.8555 89.7874 21.9912 82.4174 17.3156C80.4362 13.5513 79.6041 8.32099 82.5363 5.11146C84.4778 2.77366 87.4496 1.26796 90.7384 1.26796C95.6914 1.26796 99.8519 4.6756 101.041 9.27196C99.9707 9.66819 99.1783 10.6984 99.1783 11.9267Z" fill="#DC393C"/>
<path d="M80.674 38.5142C80.674 51.2731 70.3321 61.6149 57.5733 61.6149C44.8145 61.6149 34.4727 51.2731 34.4727 38.5142C34.4727 25.7554 44.8145 15.4136 57.5733 15.4136C70.3321 15.4136 80.674 25.7554 80.674 38.5142Z" fill="white"/>
<circle cx="58.8298" cy="39.9461" r="13.7996" fill="#161719"/>
<circle cx="50.1148" cy="31.2307" r="6.53664" fill="white"/>
<circle cx="58.104" cy="36.3149" r="1.45259" fill="white"/>
</svg>
