<svg width="37" height="37" viewBox="0 0 37 37" fill="none" xmlns="http://www.w3.org/2000/svg">
<g id="error">
<mask id="mask0_768_2933" style="mask-type:alpha" maskUnits="userSpaceOnUse" x="0" y="0" width="37" height="37">
<rect id="Bounding box" x="35.8691" y="36.1299" width="35" height="35" transform="rotate(-179.574 35.8691 36.1299)" fill="#D9D9D9"/>
</mask>
<g mask="url(#mask0_768_2933)">
<path id="error_2" d="M18.5573 11.2124C18.1441 11.2094 17.7967 11.3465 17.5152 11.624C17.2336 11.9014 17.0912 12.2467 17.0882 12.6599C17.0851 13.0731 17.2223 13.4205 17.4997 13.702C17.7771 13.9836 18.1224 14.126 18.5356 14.129C18.9488 14.1321 19.2962 13.9949 19.5778 13.7175C19.8594 13.4401 20.0017 13.0948 20.0048 12.6816C20.0078 12.2684 19.8707 11.921 19.5932 11.6394C19.3158 11.3578 18.9705 11.2155 18.5573 11.2124ZM19.9722 17.0565L17.0556 17.0348L16.9905 25.7845L19.9071 25.8062L19.9722 17.0565ZM18.6115 3.92097C20.6289 3.93598 22.5218 4.33288 24.2904 5.11168C26.0589 5.89048 27.5945 6.941 28.8972 8.26322C30.1999 9.58545 31.2275 11.1365 31.9799 12.9165C32.7323 14.6964 33.101 16.5951 33.086 18.6124C33.071 20.6297 32.6741 22.5226 31.8953 24.2912C31.1165 26.0597 30.066 27.5954 28.7438 28.8981C27.4215 30.2008 25.8704 31.2283 24.0905 31.9807C22.3105 32.7331 20.4119 33.1018 18.3946 33.0868C16.3773 33.0718 14.4844 32.6749 12.7158 31.8961C10.9472 31.1173 9.41161 30.0668 8.10891 28.7446C6.8062 27.4224 5.77865 25.8713 5.02625 24.0913C4.27384 22.3114 3.90514 20.4127 3.92014 18.3954C3.93515 16.3781 4.33205 14.4852 5.11085 12.7166C5.88966 10.9481 6.94017 9.41244 8.26239 8.10974C9.58462 6.80703 11.1357 5.77948 12.9157 5.02708C14.6956 4.27467 16.5942 3.90597 18.6115 3.92097ZM18.5899 6.83756C15.333 6.81333 12.566 7.92299 10.2888 10.1665C8.01165 12.4101 6.86095 15.1603 6.83673 18.4171C6.8125 21.674 7.92216 24.441 10.1657 26.7182C12.4092 28.9953 15.1594 30.146 18.4163 30.1703C21.6732 30.1945 24.4402 29.0848 26.7173 26.8413C28.9945 24.5977 30.1452 21.8475 30.1694 18.5907C30.1936 15.3338 29.084 12.5668 26.8404 10.2896C24.5969 8.01248 21.8467 6.86178 18.5899 6.83756Z" fill="#BFAA54"/>
</g>
</g>
</svg>
