<svg width="72" height="72" viewBox="0 0 72 72" fill="none" xmlns="http://www.w3.org/2000/svg">
<g id="ios_share">
<mask id="mask0_768_2920" style="mask-type:alpha" maskUnits="userSpaceOnUse" x="0" y="0" width="72" height="72">
<rect id="Bounding box" x="0.282227" y="0.791016" width="71.047" height="71.047" fill="#D9D9D9"/>
</mask>
<g mask="url(#mask0_768_2920)">
<path id="ios_share_2" d="M18.0563 68.8911C16.4282 68.8911 15.0344 68.3114 13.8749 67.152C12.7155 65.9925 12.1357 64.5987 12.1357 62.9705V30.4073C12.1357 28.7791 12.7155 27.3853 13.8749 26.2259C15.0344 25.0664 16.4282 24.4867 18.0563 24.4867H26.9372V30.4073H18.0563V62.9705H53.5798V30.4073H44.699V24.4867H53.5798C55.208 24.4867 56.6018 25.0664 57.7613 26.2259C58.9207 27.3853 59.5004 28.7791 59.5004 30.4073V62.9705C59.5004 64.5987 58.9207 65.9925 57.7613 67.152C56.6018 68.3114 55.208 68.8911 53.5798 68.8911H18.0563ZM32.8578 48.1691V15.0878L28.1213 19.8242L23.9769 15.6058L35.8181 3.76465L47.6593 15.6058L43.5148 19.8242L38.7784 15.0878V48.1691H32.8578Z" fill="#B4B4B4"/>
</g>
</g>
</svg>
