<svg width="434" height="284" viewBox="0 0 434 284" fill="none" xmlns="http://www.w3.org/2000/svg">
<g clip-path="url(#clip0_931_3043)">
<path d="M197 43.8178C108 35.8839 22 133.074 21 137.041C20.322 139.75 41.886 163.794 57.552 180.657C57.95 182.917 58.422 185.156 58.964 187.372C42.95 182.041 21.002 161.021 11 149.934L2 160.843C60.4 256.843 148.334 281.506 185 281.835C253.8 290.562 327.666 231.919 356 201.504L434 270.926C360.4 178.893 403.333 88.4465 434 54.7269C408 76.2148 356 119.984 356 123.157C355.995 126.933 313.206 53.9825 212 44.6992C207.344 44.2131 202.616 43.9249 197.83 43.843C197.554 43.8348 197.278 43.8253 197 43.8178Z" fill="#E52D32"/>
<path d="M200 258.033C144.772 258.033 100 215.408 100 162.826C100 110.245 144.772 67.6191 200 67.6191C255.228 67.6191 300 110.245 300 162.826C300 215.408 255.228 258.033 200 258.033Z" fill="white"/>
<path d="M77.886 2.99712C60.268 -2.41078 46.218 0.592459 35.86 6.73358C26.254 12.4279 19.952 20.7363 16.828 27.1959L16.246 28.4608L16.176 28.6197L16.124 28.7863L13.124 38.7037L16 39.5598L18.874 40.4141L21.818 30.6787C24.306 25.0619 29.994 17.1415 38.938 11.8395C47.844 6.55937 60.13 3.77714 76.112 8.68219C91.832 13.508 99.508 23.8288 102.852 34.8627C102.97 35.2517 103.084 35.6418 103.192 36.0326C103.836 47.318 103.158 61.7791 98 70.3037C90.8 82.2046 105.666 70.6344 114 63.3615C113.572 55.7055 112.036 42.8789 108.868 34.0685C108.78 33.7617 108.69 33.4544 108.598 33.1484C104.758 20.4805 95.764 8.48519 77.886 2.99712Z" fill="#E52D32"/>
<path d="M15.999 55.7197C9.37161 55.7197 3.99902 50.3915 3.99902 43.8189C3.99902 37.2462 9.37161 31.918 15.999 31.918C22.6264 31.918 27.999 37.2462 27.999 43.8189C27.999 50.3915 22.6264 55.7197 15.999 55.7197Z" fill="#E52D32"/>
<path d="M199.998 113.239C172.384 113.239 149.998 135.44 149.998 162.826C149.998 190.212 172.384 212.413 199.998 212.413C227.612 212.413 249.998 190.212 249.998 162.826C249.998 157.118 249.024 151.636 247.234 146.532C243.551 149.289 238.968 150.925 233.998 150.925C221.848 150.925 211.998 141.157 211.998 129.107C211.998 124.178 213.648 119.633 216.428 115.98C211.282 114.205 205.754 113.239 199.998 113.239ZM205.998 142.991C210.416 142.991 213.998 146.544 213.998 150.925C213.998 155.307 210.416 158.859 205.998 158.859C201.58 158.859 197.998 155.307 197.998 150.925C197.998 146.544 201.58 142.991 205.998 142.991Z" fill="#1D1D1B"/>
<path d="M284.002 222.33C250.865 222.33 224.002 195.689 224.002 162.826C224.002 129.962 250.865 103.321 284.002 103.321C317.139 103.321 344.002 129.962 344.002 162.826C344.002 195.689 317.139 222.33 284.002 222.33Z" fill="#3C3C3C"/>
<path d="M331.805 87.2351L347.34 99.727C349.914 101.797 350.309 105.544 348.222 108.097L315.314 148.348C313.227 150.901 309.449 151.292 306.875 149.222L291.34 136.731C288.766 134.661 288.371 130.914 290.458 128.361L323.366 88.1096C325.453 85.5569 329.231 85.1653 331.805 87.2351Z" fill="#272727"/>
<path d="M24.225 198.945C22.919 200.712 23.317 203.207 25.115 204.481C83.529 245.89 136.035 254.887 178.351 248.508C218.983 242.383 249.652 222.163 266.646 204.022C268.15 202.418 267.95 199.913 266.275 198.485L261.723 194.604C260.048 193.176 257.53 193.367 256.018 194.964C240.938 210.883 213.223 229.207 176.247 234.78C137.957 240.552 89.119 232.741 33.393 193.28C31.595 192.007 29.079 192.377 27.773 194.144L24.225 198.945Z" fill="#272727"/>
<path d="M17.8008 209.317C8.78086 203.437 5.02112 193.311 9.40323 186.699C13.7853 180.087 24.6499 179.494 33.6698 185.373C42.6898 191.253 46.4496 201.38 42.0675 207.991C37.6853 214.603 26.8208 215.197 17.8008 209.317Z" fill="#272727"/>
</g>
<defs>
<clipPath id="clip0_931_3043">
<rect width="434" height="283.638" fill="white" transform="matrix(-1 0 0 1 434 0.180664)"/>
</clipPath>
</defs>
</svg>
