<svg width="160" height="101" viewBox="0 0 160 101" fill="none" xmlns="http://www.w3.org/2000/svg">
<path d="M0 95.7684C28 61.3684 11.6667 29.1018 0 17.2684C3.2 17.2684 20.3333 33.6018 28.5 41.7684C81.7 -12.6316 131.333 22.4351 149.5 46.7684C147.1 51.9684 137.833 61.6018 133.5 65.7684C139.5 63.7684 148.667 56.2684 152.5 52.7684L156.5 56.7684C108.9 127.568 51.3333 95.9351 28.5 71.2684C25.7 75.2684 8.33333 89.2684 0 95.7684Z" fill="#DC393C"/>
<path d="M133.01 3.64926C121.81 7.64926 123.677 20.3159 126.01 26.1493L120.01 22.6494C119.844 17.6493 121.61 6.54895 130.01 2.14895C140.51 -3.35105 149.01 3.14895 152.01 5.64895C154.41 7.64895 155.677 14.4823 156.01 17.649L154.51 14.1493C152.01 8.98259 144.21 -0.350744 133.01 3.64926Z" fill="#DC393C"/>
<path d="M160 20C160 22.2091 158.209 24 156 24C153.791 24 152 22.2091 152 20C152 17.7909 153.791 16 156 16C158.209 16 160 17.7909 160 20Z" fill="#DC393C"/>
<path d="M123 56.5C123 75.5538 107.554 91 88.5 91C69.4462 91 54 75.5538 54 56.5C54 37.4462 69.4462 22 88.5 22C107.554 22 123 37.4462 123 56.5Z" fill="white"/>
<path d="M107 56.5C107 66.7173 98.7173 75 88.5 75C78.2827 75 70 66.7173 70 56.5C70 46.2827 78.2827 38 88.5 38C98.7173 38 107 46.2827 107 56.5Z" fill="black"/>
<path d="M85 43.5C85 47.6421 81.6421 51 77.5 51C73.3579 51 70 47.6421 70 43.5C70 39.3579 73.3579 36 77.5 36C81.6421 36 85 39.3579 85 43.5Z" fill="white"/>
<path d="M90 52.5C90 53.8807 88.8807 55 87.5 55C86.1193 55 85 53.8807 85 52.5C85 51.1193 86.1193 50 87.5 50C88.8807 50 90 51.1193 90 52.5Z" fill="white"/>
</svg>
