<svg width="97" height="70" viewBox="0 0 97 70" fill="none" xmlns="http://www.w3.org/2000/svg">
<g id="Group 380">
<ellipse id="Ellipse 14" cx="32.5" cy="11" rx="8.5" ry="11" fill="#DC393C"/>
<ellipse id="Ellipse 16" cx="19.5" cy="35" rx="8.5" ry="11" fill="#DC393C"/>
<ellipse id="Ellipse 17" cx="48.5" cy="35" rx="8.5" ry="11" fill="#DC393C"/>
<ellipse id="Ellipse 18" cx="76.5" cy="35" rx="8.5" ry="11" fill="#DC393C"/>
<ellipse id="Ellipse 15" cx="64.5" cy="11" rx="8.5" ry="11" fill="#DC393C"/>
<path id="Ellipse 19" d="M40 64C40 69.799 30.8218 70 19.5 70C8.17816 70 0 69.299 0 63.5C0 57.701 8.17816 48 19.5 48C30.8218 48 40 58.201 40 64Z" fill="#DC393C"/>
<path id="Ellipse 20" d="M97 64C97 69.799 87.8218 70 76.5 70C65.1782 70 57 69.299 57 63.5C57 57.701 65.1782 48 76.5 48C87.8218 48 97 58.201 97 64Z" fill="#DC393C"/>
</g>
</svg>
