<svg width="90" height="81" viewBox="0 0 90 81" fill="none" xmlns="http://www.w3.org/2000/svg">
<g id="Group 381">
<path id="Subtract" d="M40.5 0C51.8422 0 62.0931 4.66482 69.4453 12.1777L61.3896 16.9268C55.8298 11.9962 48.5156 9 40.5 9C23.103 9 9 23.103 9 40.5C9 57.897 23.103 72 40.5 72C57.897 72 72 57.897 72 40.5C72 37.5967 71.6045 34.7858 70.8691 32.1162L78.8389 27.418C80.2389 31.522 81 35.922 81 40.5C81 62.8675 62.8675 81 40.5 81C18.1325 81 0 62.8675 0 40.5C0 18.1325 18.1325 0 40.5 0Z" fill="#DC393C"/>
<circle id="Ellipse 22" cx="40.5" cy="40.5" r="9.5" fill="#DC393C"/>
<path id="Subtract_2" d="M40.5 15C46.677 15 52.3394 17.1981 56.752 20.8525L48.4639 26.0479C46.1026 24.7436 43.3884 24 40.5 24C31.3873 24 24 31.3873 24 40.5C24 49.6127 31.3873 57 40.5 57C49.6127 57 57 49.6127 57 40.5C57 40.4178 56.9973 40.3358 56.9961 40.2539L65.4004 34.9873C65.7918 36.7626 66 38.607 66 40.5C66 54.5833 54.5833 66 40.5 66C26.4167 66 15 54.5833 15 40.5C15 26.4167 26.4167 15 40.5 15Z" fill="#DC393C"/>
<path id="Vector 4" d="M38.4652 42.667L78 16.5" stroke="#DC393C" stroke-width="10" stroke-linecap="round"/>
<path id="Vector 5" d="M65.0567 13.507L71.279 8.87033C73.5574 7.17254 76.7909 7.71228 78.3943 10.058L83.9217 18.1443C85.5133 20.4726 84.8653 23.6557 82.4903 25.1766L76.1343 29.2466C74.9705 29.9919 73.55 30.2222 72.2103 29.8828L66.283 28.3815C63.9035 27.7787 62.3135 25.538 62.5302 23.093L63.0638 17.0747C63.1895 15.6559 63.9145 14.3581 65.0567 13.507Z" fill="#DC393C" stroke="#DC393C" stroke-width="5" stroke-linecap="round"/>
</g>
</svg>
