<svg width="536" height="447" viewBox="0 0 536 447" fill="none" xmlns="http://www.w3.org/2000/svg">
<mask id="path-1-inside-1_594_5999" fill="white">
<path d="M314.015 19.619L328.929 20.9457L342.529 4.83865C355.845 8.52277 348.296 18.3142 349.39 25.3754C349.532 26.2745 355.856 41.4716 356.546 42.0636C358.132 43.4452 367.203 37.2063 370.091 44.4978C371.295 47.524 367.991 52.4801 368.921 54.6072C369.194 55.2212 381.58 54.8484 382.237 54.7168C384.173 54.3221 387.27 53.0941 394.502 51.8003C399.196 50.956 403.617 44.2785 407.195 44.8816C413.935 46.0219 417.491 58.0611 416.604 64.3C423.738 63.9601 427.885 69.5959 433.104 71.5366C435.993 72.6112 447.022 76.701 447.865 76.8874C450.797 77.5343 456.892 71.723 456.301 83.3675C447.23 85.4727 454.047 88.8608 453.128 91.6568C453.04 91.9309 449.922 92.216 449.025 94.1457C443.718 105.659 443.236 118.125 440.238 129.726C438.575 136.151 422.972 141.59 427.327 149.627C429.034 152.785 434.439 153.399 435.588 155.263C436.847 157.291 436.485 167.291 439.976 167.061C440.654 167.017 442.908 163.026 445.436 162.554C448.313 162.017 450.699 165.855 453.697 166.162C462.155 167.017 473.282 163.782 480.931 168.607C482.506 169.604 482.988 173.058 484.344 173.859C487.167 175.525 491.424 174.363 495.012 176.896C502.617 182.258 500.057 199.768 516.053 197.137C513.274 206.939 496.599 209.56 507.3 222.136C511.348 226.895 519.445 222.816 523.68 225.765C525.233 226.851 525.616 231.193 527.083 233.605C527.673 234.581 530.737 234.724 531.043 236.335C532.367 243.122 526.514 248.386 526.711 250.874C526.886 253.166 535.869 260.096 536 264.569C516.94 263.561 522.968 269.361 515.933 275.731C513.198 278.209 506.578 278.111 503.317 283.231C502.3 284.821 499.991 303.253 498.579 307.112L493.59 297.101C486.981 294.371 489.367 302.255 487.364 302.178C483.743 302.036 476.773 294.097 473.687 297.101C473.359 297.43 474.07 302.079 472.265 304.338C457.461 322.846 462.176 327.254 454.922 339.524C452.789 343.142 448.149 342.956 446.311 346.574C440.873 357.264 449.167 363.701 448.674 364.534C448.357 365.06 442.853 362.418 442.58 373.273C442.252 385.871 446.727 379.753 448.707 381.014C456.695 386.08 453.018 396.529 453.762 396.967C455.338 397.889 460.448 396.386 461.181 397.088C462.592 398.448 458.423 406.035 458.971 406.792C459.572 407.636 463.872 407.855 464.988 409.445C469.168 415.377 462.067 418.546 460.59 422.833C459.321 426.528 461.958 430.158 458.806 433.359C453.347 438.896 434.625 434.006 430.172 434.861C425.719 435.717 426.715 444.115 426.222 444.587C425.598 445.19 419.023 442.252 415.609 442.559C411.889 442.898 405.717 447.065 405.028 446.999C402.227 446.769 401.023 422.022 389.786 420.136C387.138 419.686 382.204 422.943 381.372 422.066C379.589 420.191 384.874 411.507 383.692 409.895C381.35 406.737 361.907 403.678 356.403 400.663C356.403 394.906 338.196 380.542 334.848 379.939C331.861 379.402 322.692 387.001 319.366 381.672C311.488 369.052 328.25 356.135 315.525 347.988C313.129 346.453 309.267 347.298 309.037 347.056C307.1 345.006 312.232 337.824 312.746 334.414C313.939 326.399 312.297 321.355 314.934 315.281C315.47 314.042 323.458 308.57 321.51 302.101C315.832 301.147 310.208 299.733 305.776 304.492C303.588 306.838 304.354 309.886 303.292 311.18C301.257 313.658 296.662 314.108 295.152 317.046C293.729 319.809 296.323 324.162 295.863 327.726C293.883 342.824 287.219 336.519 277.196 341.366C274.352 342.736 274.253 345.905 272.185 346.903C260.357 352.583 251.801 345.883 240.312 344.469C235.563 343.888 228.243 346.87 227.215 346.442C226.985 346.344 226.919 344.096 224.6 342.331C223.418 341.432 220.168 342.506 219.359 341.947C218.812 341.574 219.403 329.381 219.578 328.745C220.759 324.568 229.13 322.967 230.672 319.612C231.799 317.156 228.046 315.314 227.587 312.912C226.427 306.772 234.677 306.465 216.744 307.057C222.236 300.599 220.672 291.586 223.418 285.095C225.41 280.391 236.11 283.418 222.97 272.102L220.497 279.58C218.549 275.479 205.66 258.144 202.782 257.409C197.957 256.181 188.689 264.01 185.516 264.58C184.05 264.843 184.86 260.666 181.205 258.835C179.586 258.023 164.979 256.488 164.366 257.07L160.657 267.058C150.164 260.381 156.039 248.462 154.267 238.462C150.579 217.674 132.941 228.167 131.957 227.081C131.103 226.149 136.191 219.439 130.655 217.114C127.46 215.766 123.444 226.412 115.697 226.204C114.341 226.171 102.917 219.724 102.545 219.066C101.834 217.805 97.7201 194.407 97.2387 190.602C96.8338 187.4 99.624 183.332 99.0988 181.052C98.4532 178.256 92.304 176.534 89.864 173.014C87.424 169.484 85.0934 160.01 84.5026 159.605C83.3865 158.837 59.6103 166.48 58.527 167.302C53.5158 171.096 54.5224 181.852 50.8788 182.038C50.0035 182.082 36.1404 174.341 35.4729 173.782C31.3698 170.361 26.9384 156.842 22.879 154.364C18.8197 151.886 12.9002 155.23 12.2656 154.616C11.4559 153.826 8.33756 134.572 8.44697 132.259C9.23478 114.979 7.75765 116.601 4.1469 98.9373C3.51228 95.8453 1.50995 93.455 0 90.8235C29.7395 75.6813 56.0652 55.5721 84.3494 38.0177C86.2751 36.8225 86.669 33.2371 87.4787 32.7108C88.6276 31.9542 109.712 33.6538 114.461 29.6188C114.57 47.7762 114.045 59.6838 136.913 57.0852L134.408 47.1293C138.204 43.489 165.865 50.5284 169.421 53.2805C176.128 58.4777 164.289 64.7605 180.647 64.596C193.383 64.4644 218.396 53.2366 226.361 43.0066C232.226 35.4739 231.384 24.3119 244.951 27.1079C246.844 27.5026 245.881 34.8379 255.368 32.0858C263.06 29.849 253.606 23.9062 252.425 20.4304C248.398 8.64338 267.568 3.23781 276.606 4.65225L274.133 17.1191C279.199 14.4656 285.939 18.0401 289.801 17.2616C291.716 16.8778 300.458 -0.566925 307.33 0.0142015C322.331 1.27514 312.68 18.3142 314.015 19.608V19.619Z"/>
</mask>
<path d="M314.015 19.619L328.929 20.9457L342.529 4.83865C355.845 8.52277 348.296 18.3142 349.39 25.3754C349.532 26.2745 355.856 41.4716 356.546 42.0636C358.132 43.4452 367.203 37.2063 370.091 44.4978C371.295 47.524 367.991 52.4801 368.921 54.6072C369.194 55.2212 381.58 54.8484 382.237 54.7168C384.173 54.3221 387.27 53.0941 394.502 51.8003C399.196 50.956 403.617 44.2785 407.195 44.8816C413.935 46.0219 417.491 58.0611 416.604 64.3C423.738 63.9601 427.885 69.5959 433.104 71.5366C435.993 72.6112 447.022 76.701 447.865 76.8874C450.797 77.5343 456.892 71.723 456.301 83.3675C447.23 85.4727 454.047 88.8608 453.128 91.6568C453.04 91.9309 449.922 92.216 449.025 94.1457C443.718 105.659 443.236 118.125 440.238 129.726C438.575 136.151 422.972 141.59 427.327 149.627C429.034 152.785 434.439 153.399 435.588 155.263C436.847 157.291 436.485 167.291 439.976 167.061C440.654 167.017 442.908 163.026 445.436 162.554C448.313 162.017 450.699 165.855 453.697 166.162C462.155 167.017 473.282 163.782 480.931 168.607C482.506 169.604 482.988 173.058 484.344 173.859C487.167 175.525 491.424 174.363 495.012 176.896C502.617 182.258 500.057 199.768 516.053 197.137C513.274 206.939 496.599 209.56 507.3 222.136C511.348 226.895 519.445 222.816 523.68 225.765C525.233 226.851 525.616 231.193 527.083 233.605C527.673 234.581 530.737 234.724 531.043 236.335C532.367 243.122 526.514 248.386 526.711 250.874C526.886 253.166 535.869 260.096 536 264.569C516.94 263.561 522.968 269.361 515.933 275.731C513.198 278.209 506.578 278.111 503.317 283.231C502.3 284.821 499.991 303.253 498.579 307.112L493.59 297.101C486.981 294.371 489.367 302.255 487.364 302.178C483.743 302.036 476.773 294.097 473.687 297.101C473.359 297.43 474.07 302.079 472.265 304.338C457.461 322.846 462.176 327.254 454.922 339.524C452.789 343.142 448.149 342.956 446.311 346.574C440.873 357.264 449.167 363.701 448.674 364.534C448.357 365.06 442.853 362.418 442.58 373.273C442.252 385.871 446.727 379.753 448.707 381.014C456.695 386.08 453.018 396.529 453.762 396.967C455.338 397.889 460.448 396.386 461.181 397.088C462.592 398.448 458.423 406.035 458.971 406.792C459.572 407.636 463.872 407.855 464.988 409.445C469.168 415.377 462.067 418.546 460.59 422.833C459.321 426.528 461.958 430.158 458.806 433.359C453.347 438.896 434.625 434.006 430.172 434.861C425.719 435.717 426.715 444.115 426.222 444.587C425.598 445.19 419.023 442.252 415.609 442.559C411.889 442.898 405.717 447.065 405.028 446.999C402.227 446.769 401.023 422.022 389.786 420.136C387.138 419.686 382.204 422.943 381.372 422.066C379.589 420.191 384.874 411.507 383.692 409.895C381.35 406.737 361.907 403.678 356.403 400.663C356.403 394.906 338.196 380.542 334.848 379.939C331.861 379.402 322.692 387.001 319.366 381.672C311.488 369.052 328.25 356.135 315.525 347.988C313.129 346.453 309.267 347.298 309.037 347.056C307.1 345.006 312.232 337.824 312.746 334.414C313.939 326.399 312.297 321.355 314.934 315.281C315.47 314.042 323.458 308.57 321.51 302.101C315.832 301.147 310.208 299.733 305.776 304.492C303.588 306.838 304.354 309.886 303.292 311.18C301.257 313.658 296.662 314.108 295.152 317.046C293.729 319.809 296.323 324.162 295.863 327.726C293.883 342.824 287.219 336.519 277.196 341.366C274.352 342.736 274.253 345.905 272.185 346.903C260.357 352.583 251.801 345.883 240.312 344.469C235.563 343.888 228.243 346.87 227.215 346.442C226.985 346.344 226.919 344.096 224.6 342.331C223.418 341.432 220.168 342.506 219.359 341.947C218.812 341.574 219.403 329.381 219.578 328.745C220.759 324.568 229.13 322.967 230.672 319.612C231.799 317.156 228.046 315.314 227.587 312.912C226.427 306.772 234.677 306.465 216.744 307.057C222.236 300.599 220.672 291.586 223.418 285.095C225.41 280.391 236.11 283.418 222.97 272.102L220.497 279.58C218.549 275.479 205.66 258.144 202.782 257.409C197.957 256.181 188.689 264.01 185.516 264.58C184.05 264.843 184.86 260.666 181.205 258.835C179.586 258.023 164.979 256.488 164.366 257.07L160.657 267.058C150.164 260.381 156.039 248.462 154.267 238.462C150.579 217.674 132.941 228.167 131.957 227.081C131.103 226.149 136.191 219.439 130.655 217.114C127.46 215.766 123.444 226.412 115.697 226.204C114.341 226.171 102.917 219.724 102.545 219.066C101.834 217.805 97.7201 194.407 97.2387 190.602C96.8338 187.4 99.624 183.332 99.0988 181.052C98.4532 178.256 92.304 176.534 89.864 173.014C87.424 169.484 85.0934 160.01 84.5026 159.605C83.3865 158.837 59.6103 166.48 58.527 167.302C53.5158 171.096 54.5224 181.852 50.8788 182.038C50.0035 182.082 36.1404 174.341 35.4729 173.782C31.3698 170.361 26.9384 156.842 22.879 154.364C18.8197 151.886 12.9002 155.23 12.2656 154.616C11.4559 153.826 8.33756 134.572 8.44697 132.259C9.23478 114.979 7.75765 116.601 4.1469 98.9373C3.51228 95.8453 1.50995 93.455 0 90.8235C29.7395 75.6813 56.0652 55.5721 84.3494 38.0177C86.2751 36.8225 86.669 33.2371 87.4787 32.7108C88.6276 31.9542 109.712 33.6538 114.461 29.6188C114.57 47.7762 114.045 59.6838 136.913 57.0852L134.408 47.1293C138.204 43.489 165.865 50.5284 169.421 53.2805C176.128 58.4777 164.289 64.7605 180.647 64.596C193.383 64.4644 218.396 53.2366 226.361 43.0066C232.226 35.4739 231.384 24.3119 244.951 27.1079C246.844 27.5026 245.881 34.8379 255.368 32.0858C263.06 29.849 253.606 23.9062 252.425 20.4304C248.398 8.64338 267.568 3.23781 276.606 4.65225L274.133 17.1191C279.199 14.4656 285.939 18.0401 289.801 17.2616C291.716 16.8778 300.458 -0.566925 307.33 0.0142015C322.331 1.27514 312.68 18.3142 314.015 19.608V19.619Z" fill="#F3F3F2" stroke="#F3F3F2" stroke-width="8" mask="url(#path-1-inside-1_594_5999)"/>
</svg>
