<svg width="33" height="21" viewBox="0 0 33 21" fill="none" xmlns="http://www.w3.org/2000/svg">
<g id="Group 64">
<g id="Group">
<path id="Vector" d="M30.3127 3.64527C30.3127 4.12969 30.7002 4.51723 31.1846 4.51723C31.669 4.51723 32.0566 4.12969 32.0566 3.64527C32.0566 3.19718 31.7175 2.82175 31.2815 2.78542C30.894 1.18683 29.4528 0 27.7331 0C26.6674 0 25.7107 0.44809 25.0446 1.17472C23.8456 2.45844 23.9062 3.85115 23.9304 4.56567C22.0896 3.60894 19.9581 2.94286 17.5966 2.94286C12.2316 2.94286 8.13827 6.24903 5.76461 8.81646C3.51205 6.38225 0 3.66949 0 3.66949C0 3.66949 3.16085 7.73863 3.16085 11.7714C3.16085 15.8042 0 19.8734 0 19.8734C0 19.8734 3.58472 17.1001 5.83727 14.6416C8.30782 17.2212 12.5223 20.6 17.5966 20.6C26.9096 20.6 31.7417 11.7714 31.7417 11.7714C31.7417 11.7714 31.4995 11.3839 31.0272 10.7663C31.0272 10.7663 29.2348 13.1157 27.0428 13.7697C27.0428 13.7697 28.1812 12.7524 28.9442 11.8078C29.7192 10.8631 30.3127 9.85797 30.3127 9.85797C29.1985 8.5137 27.4425 6.72134 25.1899 5.2923C24.5844 4.1418 24.33 2.54321 25.2262 1.56226C25.8196 0.847737 26.7279 0.387537 27.7331 0.387537C29.2469 0.387537 30.5185 1.42904 30.8818 2.83386C30.5549 2.95497 30.3127 3.26984 30.3127 3.64527Z" fill="#FF7884"/>
<path id="Vector_2" d="M24.657 11.7716C24.657 15.6712 21.4962 18.8321 17.5966 18.8321C13.697 18.8321 10.5361 15.6712 10.5361 11.7716C10.5361 7.87203 13.697 4.71118 17.5966 4.71118C21.4962 4.71118 24.657 7.87203 24.657 11.7716Z" fill="white"/>
</g>
<circle id="Ellipse 2" cx="17.9804" cy="12.2089" r="4.21767" fill="#161719"/>
<circle id="Ellipse 3" cx="15.3162" cy="9.54521" r="1.99785" fill="white"/>
<circle id="Ellipse 4" cx="17.7584" cy="11.0992" r="0.443966" fill="white"/>
</g>
</svg>
