<svg width="16" height="16" viewBox="0 0 16 16" fill="none" xmlns="http://www.w3.org/2000/svg">
<path id="Union" d="M6.17871 0.0078125C9.28328 0.165318 11.7519 2.73228 11.752 5.87598L11.7441 6.17871C11.6887 7.27067 11.3335 8.28283 10.7617 9.1377L14.9521 13.5098C15.3783 13.9545 15.3635 14.6606 14.9189 15.0869C14.4742 15.5132 13.7681 15.4984 13.3418 15.0537L9.19238 10.7246C8.24829 11.3716 7.107 11.752 5.87598 11.752L5.57324 11.7441C2.56896 11.5916 0.160232 9.18302 0.0078125 6.17871L0 5.87598C8.64524e-05 2.63082 2.63081 5.54059e-05 5.87598 0L6.17871 0.0078125ZM5.87598 2.23145C3.86295 2.2315 2.23153 3.86296 2.23145 5.87598C2.23145 7.88907 3.8629 9.52143 5.87598 9.52148C7.8891 9.52148 9.52148 7.8891 9.52148 5.87598C9.5214 3.86292 7.88905 2.23145 5.87598 2.23145Z" fill="#949494"/>
</svg>
