<svg width="109" height="71" viewBox="0 0 109 71" fill="none" xmlns="http://www.w3.org/2000/svg">
<g id="Vector">
<path d="M48.9747 10.9232C26.6221 8.93721 5.02304 33.2659 4.77189 34.2589C4.60161 34.937 10.0175 40.9555 13.952 45.1767C14.052 45.7424 14.1705 46.3028 14.3066 46.8577C10.2847 45.5232 4.77239 40.2614 2.26037 37.4862L0 40.2169C14.6673 64.2476 36.7521 70.4211 45.9608 70.5035C63.24 72.6881 81.7918 58.0085 88.9078 50.3951L108.498 67.7727C90.013 44.7352 100.796 22.0947 108.498 13.654C101.968 19.0328 88.9078 29.989 88.9078 30.7834C88.9066 31.7286 78.16 13.4677 52.7419 11.1439C51.5726 11.0222 50.3851 10.95 49.1831 10.9295C49.1138 10.9275 49.0445 10.9251 48.9747 10.9232Z" fill="#E52D32"/>
<path d="M49.7281 64.5455C35.8574 64.5455 24.6129 53.8754 24.6129 40.7133C24.6129 27.5511 35.8574 16.8811 49.7281 16.8811C63.5989 16.8811 74.8433 27.5511 74.8433 40.7133C74.8433 53.8754 63.5989 64.5455 49.7281 64.5455Z" fill="white"/>
<path d="M19.0584 0.705013C14.6336 -0.648689 11.105 0.10308 8.50353 1.64032C6.09096 3.06571 4.5082 5.14548 3.7236 6.76244L3.57743 7.07907L3.55985 7.11883L3.54679 7.16054L2.79334 9.64306L4.23746 10.0712L4.97685 7.63426C5.60172 6.22826 7.03027 4.24562 9.27657 2.91843C11.5133 1.59671 14.599 0.900268 18.6129 2.1281C22.561 3.33608 24.4889 5.91958 25.3287 8.68158C25.3583 8.77894 25.387 8.87661 25.4141 8.97442C25.5758 11.7994 25.4056 15.4193 24.1101 17.5532C22.3018 20.5322 26.0355 17.6359 28.1286 15.8154C28.0211 13.8989 27.6353 10.6882 26.8396 8.48278C26.8175 8.40597 26.7949 8.32906 26.7718 8.25245C25.8074 5.08143 23.5485 2.07878 19.0584 0.705013Z" fill="#E52D32"/>
<path d="M3.51707 13.9021C1.85258 13.9021 0.503247 12.5684 0.503247 10.9231C0.503247 9.27785 1.85258 7.94409 3.51707 7.94409C5.18156 7.94409 6.5309 9.27785 6.5309 10.9231C6.5309 12.5684 5.18156 13.9021 3.51707 13.9021Z" fill="#E52D32"/>
<path d="M49.7272 28.3008C42.7919 28.3008 37.1696 33.8581 37.1696 40.7134C37.1696 47.5686 42.7919 53.126 49.7272 53.126C56.6625 53.126 62.2848 47.5686 62.2848 40.7134C62.2848 39.2845 62.0402 37.9122 61.5907 36.6347C60.6656 37.3246 59.5145 37.7343 58.2664 37.7343C55.2149 37.7343 52.741 35.2891 52.741 32.2728C52.741 31.039 53.1554 29.9013 53.8536 28.9869C52.5612 28.5426 51.1728 28.3008 49.7272 28.3008ZM51.2341 35.7483C52.3437 35.7483 53.2433 36.6375 53.2433 37.7343C53.2433 38.8312 52.3437 39.7204 51.2341 39.7204C50.1245 39.7204 49.2249 38.8312 49.2249 37.7343C49.2249 36.6375 50.1245 35.7483 51.2341 35.7483Z" fill="#1D1D1B"/>
<path d="M70.8249 55.6084C62.5024 55.6084 55.7558 48.9396 55.7558 40.7133C55.7558 32.4869 62.5024 25.8182 70.8249 25.8182C79.1473 25.8182 85.894 32.4869 85.894 40.7133C85.894 48.9396 79.1473 55.6084 70.8249 55.6084Z" fill="#3C3C3C"/>
<path d="M82.8317 21.7911L86.7334 24.9181C87.3799 25.4362 87.479 26.3742 86.9549 27.0132L78.69 37.0889C78.1659 37.7279 77.2169 37.8259 76.5705 37.3078L72.6688 34.1808C72.0223 33.6627 71.9232 32.7247 72.4473 32.0857L80.7122 22.01C81.2363 21.371 82.1853 21.273 82.8317 21.7911Z" fill="#272727"/>
<path d="M5.58257 49.7546C5.25457 50.197 5.35452 50.8216 5.80609 51.1403C20.4769 61.5058 33.6639 63.758 44.2916 62.1612C54.4964 60.628 62.1991 55.5666 66.4672 51.0256C66.8448 50.6239 66.7945 49.9969 66.3738 49.6395L65.2308 48.6681C64.8101 48.3105 64.1777 48.3585 63.7978 48.7582C60.0106 52.743 53.0498 57.3297 43.7632 58.7249C34.1466 60.1697 21.8808 58.2145 7.88513 48.3366C7.43356 48.018 6.80166 48.1106 6.47365 48.5529L5.58257 49.7546Z" fill="#272727"/>
<path d="M3.96891 52.3508C1.70352 50.879 0.759259 48.3442 1.85983 46.6891C2.96041 45.034 5.68906 44.8854 7.95444 46.3573C10.2198 47.8291 11.1641 50.3639 10.0635 52.019C8.96295 53.6741 6.23429 53.8226 3.96891 52.3508Z" fill="#272727"/>
</g>
</svg>
